# xmcd
#
# Track frame offsets: 
#        150
#        16912
#        33920
#        50117
#        65672
#        82760
#        100295
#        119412
#        134035
#        147937
#        163427
#        181522
#        196047
#
# Disc length: 2926 seconds
#
# Revision: 0
# Processed by: cddbd v1.4PL0 Copyright (c) Steve Scherf et al.
# Submitted via: ExactAudioCopy v0.95a3
#
DISCID=b30b6c0d
DTITLE=Blue - All Rise
DYEAR=1900
DGENRE=R&B
TTITLE0=All Rise
TTITLE1=Too Close
TTITLE2=This Temptation
TTITLE3=If You Come Back
TTITLE4=Fly By
TTITLE5=Bounce
TTITLE6=Long Time
TTITLE7=Make It Happen
TTITLE8=Back To You
TTITLE9=Girl I'll Never Understand
TTITLE10=Back Somebody
TTITLE11=Best In Me
TTITLE12=All Rise (Blacksmith Rnb Club Rnb)
EXTD=
EXTT0=
EXTT1=
EXTT2=
EXTT3=
EXTT4=
EXTT5=
EXTT6=
EXTT7=
EXTT8=
EXTT9=
EXTT10=
EXTT11=
EXTT12=
PLAYORDER=
